<svg width="14" height="18" viewBox="0 0 14 18" fill="none" xmlns="http://www.w3.org/2000/svg">
<path d="M1.6424 5.57233C1.40365 3.99983 2.5124 2.58733 4.20615 2.06983C4.50672 1.97793 4.83102 2.00409 5.11297 2.14298C5.39492 2.28186 5.61331 2.52303 5.72365 2.81733L6.2674 4.26733C6.35493 4.5006 6.37076 4.7547 6.31285 4.99702C6.25494 5.23935 6.12594 5.45884 5.9424 5.62733L4.3249 7.10858C4.24517 7.18174 4.18576 7.27432 4.15246 7.37728C4.11916 7.48025 4.11311 7.59008 4.1349 7.69608L4.1499 7.76108L4.18865 7.92358C4.3898 8.71314 4.69631 9.47203 5.0999 10.1798C5.53954 10.932 6.08513 11.6169 6.7199 12.2136L6.7699 12.2586C6.85065 12.3303 6.94859 12.3798 7.05418 12.4024C7.15977 12.4249 7.2694 12.4197 7.3724 12.3873L9.46365 11.7286C9.70131 11.654 9.95585 11.6521 10.1946 11.7231C10.4334 11.7941 10.6454 11.9349 10.8036 12.1273L11.7936 13.3286C12.2061 13.8286 12.1561 14.5636 11.6824 15.0048C10.3861 16.2136 8.60365 16.4611 7.36365 15.4648C5.84368 14.2388 4.56234 12.7435 3.58365 11.0536C2.59701 9.365 1.93922 7.50537 1.6424 5.57233ZM5.44615 7.77858L6.78615 6.54858C7.15344 6.21175 7.41169 5.77283 7.52773 5.28817C7.64377 4.80351 7.61232 4.29523 7.4374 3.82858L6.8949 2.37858C6.67283 1.78639 6.23331 1.30115 5.66592 1.02175C5.09852 0.74235 4.44594 0.689807 3.84115 0.874829C1.7374 1.51858 0.0486468 3.40483 0.406147 5.76108C0.656147 7.40608 1.2324 9.49858 2.50365 11.6836C3.55954 13.5057 4.94172 15.118 6.58115 16.4398C8.44115 17.9336 10.9236 17.4236 12.5361 15.9211C12.9975 15.4915 13.2776 14.902 13.3192 14.2729C13.3608 13.6439 13.1607 13.0227 12.7599 12.5361L11.7699 11.3336C11.4532 10.9492 11.0289 10.6681 10.5514 10.5265C10.0739 10.3848 9.56498 10.3891 9.0899 10.5386L7.35365 11.0848C6.90536 10.6226 6.51269 10.1095 6.18365 9.55608C5.8658 8.99653 5.6181 8.39995 5.44615 7.77983V7.77858Z" fill="white"/>
</svg>
