<svg width="18" height="16" viewBox="0 0 18 16" fill="none" xmlns="http://www.w3.org/2000/svg">
<path d="M17.3275 2.38576C17.2802 2.27155 17.2001 2.17393 17.0973 2.10523C16.9946 2.03653 16.8737 1.99985 16.7501 1.99983H14.3728C14.0404 1.43434 13.5673 0.964481 12.9996 0.635925C12.4319 0.307368 11.7888 0.131296 11.1329 0.124827C10.6443 0.118417 10.1593 0.209806 9.70645 0.393617C9.25363 0.577427 8.84215 0.849946 8.49622 1.19514C8.14018 1.54453 7.85759 1.96158 7.66506 2.42177C7.47253 2.88196 7.37395 3.37599 7.37512 3.87483V4.35061C4.22981 3.52092 1.65715 0.962327 1.62981 0.934983C1.54596 0.85039 1.43968 0.791519 1.32349 0.765301C1.20731 0.739084 1.08605 0.746612 0.973995 0.787C0.861943 0.827388 0.763765 0.898954 0.691022 0.993269C0.618279 1.08758 0.574002 1.20072 0.563403 1.31936C0.226684 5.05295 1.31106 7.55139 2.28215 8.98967C2.75565 9.70068 3.33167 10.3378 3.99153 10.8803C2.80168 12.2498 0.928247 12.9694 0.907934 12.9772C0.819742 13.0102 0.740154 13.0627 0.675118 13.1308C0.610083 13.199 0.56128 13.2809 0.532357 13.3705C0.503434 13.4601 0.495138 13.5551 0.50809 13.6484C0.521042 13.7417 0.554906 13.8308 0.607153 13.9092C0.665747 13.9967 0.900122 14.3037 1.47278 14.5905C2.18059 14.9451 3.11575 15.1248 4.25012 15.1248C9.77122 15.1248 14.3845 10.8733 14.8556 5.40295L17.1923 3.06701C17.2797 2.97956 17.3392 2.86815 17.3632 2.74689C17.3873 2.62563 17.3748 2.49995 17.3275 2.38576ZM13.8118 4.68342C13.7047 4.79084 13.6403 4.93357 13.6306 5.08498C13.3126 10.0139 9.19387 13.8748 4.25012 13.8748C3.42512 13.8748 2.84387 13.7655 2.43606 13.6342C3.33528 13.1459 4.58918 12.3061 5.39543 11.0967C5.44275 11.0256 5.475 10.9455 5.49017 10.8615C5.50534 10.7774 5.50312 10.6911 5.48365 10.608C5.46417 10.5248 5.42786 10.4465 5.37694 10.3779C5.32603 10.3093 5.26159 10.2519 5.18762 10.2092C5.1509 10.1881 1.75715 8.15139 1.75012 2.7092C3.00012 3.72483 5.28528 5.30061 7.89621 5.73967C7.9857 5.75476 8.07739 5.75018 8.16493 5.72625C8.25246 5.70232 8.33374 5.65962 8.4031 5.60111C8.47247 5.5426 8.52826 5.46968 8.5666 5.38743C8.60494 5.30518 8.62491 5.21557 8.62512 5.12483V3.87483C8.62442 3.54143 8.69041 3.21126 8.81921 2.90374C8.94802 2.59623 9.13703 2.31758 9.37512 2.0842C9.60337 1.85553 9.87514 1.67493 10.1744 1.55309C10.4736 1.43125 10.7942 1.37063 11.1173 1.37483C12.1064 1.38733 13.0306 1.99045 13.4173 2.87561C13.4661 2.98689 13.5462 3.08156 13.6479 3.14802C13.7496 3.21448 13.8685 3.24986 13.99 3.24983H15.24L13.8118 4.68342Z" fill="white"/>
</svg>
